<svg xmlns="http://www.w3.org/2000/svg" viewBox="0 0 24 24" width="24" height="24" fill="currentColor">
  <path fill-rule="evenodd" clip-rule="evenodd" d="M12 2a10 10 0 1 0 0 20 10 10 0 0 0 0-20Zm0 1.5a8.5 8.5 0 1 1 0 17 8.5 8.5 0 0 1 0-17Z"/>
  <path d="M12 1.25a.75.75 0 0 1 .75.75V4a.75.75 0 0 1-1.5 0V2a.75.75 0 0 1 .75-.75Zm0 18a.75.75 0 0 1 .75.75v2a.75.75 0 0 1-1.5 0v-2a.75.75 0 0 1 .75-.75ZM1.25 12a.75.75 0 0 1 .75-.75h2a.75.75 0 0 1 0 1.5H2a.75.75 0 0 1-.75-.75Zm18 0a.75.75 0 0 1 .75-.75h2a.75.75 0 0 1 0 1.5h-2a.75.75 0 0 1-.75-.75Z"/>
  <path d="M12 12 17.5 6.5l-3.9 7.2a1.8 1.8 0 0 1-3.16-.02L12 12Z"/>
  <path d="M12 12 6.5 17.5l3.9-7.2a1.8 1.8 0 0 1 3.16.02L12 12Z" opacity="0.55"/>
  <circle cx="12" cy="12" r="1.5"/>
</svg>
